<svg width="155" height="155" viewBox="0 0 155 155" fill="none" xmlns="http://www.w3.org/2000/svg">
<path d="M83.4975 7.53183V8.54355L72.4975 8.54355V7.53183L83.4975 7.53183Z" fill="#8C6CAA"/>
<path d="M93.8295 13.4418L96.0346 5.75174L100.856 7.13423L100.569 8.13304L96.9084 7.08325L96.2366 9.42633L99.6461 10.404L99.3607 11.399L95.9512 10.4214L95.2762 12.7757L98.9823 13.8384L98.6959 14.8372L93.8295 13.4418Z" fill="#8C6CAA"/>
<path d="M105.82 9.02531L106.296 12.6622L106.353 12.6877L109.374 10.6078L110.651 11.1766L106.748 13.8171L107.412 18.4913L106.127 17.9193L105.627 14.3185L105.57 14.2931L102.559 16.3305L101.274 15.7585L105.231 13.1418L104.542 8.45652L105.82 9.02531Z" fill="#8C6CAA"/>
<path d="M110.234 20.0488L114.473 13.2644L116.892 14.7755C117.419 15.1054 117.797 15.4747 118.023 15.8835C118.25 16.2923 118.345 16.7172 118.309 17.1583C118.274 17.5972 118.127 18.0243 117.868 18.4395C117.607 18.8569 117.285 19.1778 116.902 19.4023C116.523 19.6259 116.098 19.7259 115.628 19.7022C115.161 19.6776 114.665 19.5012 114.139 19.1727L112.476 18.1336L113.019 17.2657L114.589 18.2468C114.922 18.4552 115.229 18.5668 115.508 18.5817C115.789 18.5944 116.041 18.5306 116.263 18.3904C116.486 18.2501 116.678 18.0519 116.838 17.7957C116.998 17.5395 117.091 17.2817 117.118 17.0222C117.145 16.7627 117.089 16.5111 116.95 16.2674C116.813 16.025 116.574 15.7976 116.234 15.5851L114.948 14.7819L111.258 20.6885L110.234 20.0488Z" fill="#8C6CAA"/>
<path d="M118.6 25.7504L123.742 19.622L124.666 20.3979L120.192 25.7303L122.969 28.0604L122.301 28.8563L118.6 25.7504Z" fill="#8C6CAA"/>
<path d="M132.262 33.6271C131.627 34.1986 130.977 34.5739 130.311 34.7529C129.647 34.9302 129.01 34.9272 128.4 34.7441C127.794 34.5611 127.26 34.2132 126.798 33.7003C126.335 33.1855 126.043 32.6161 125.922 31.9921C125.806 31.3683 125.871 30.7346 126.119 30.0911C126.366 29.4477 126.807 28.841 127.439 28.2712C128.074 27.6997 128.724 27.3253 129.387 27.148C130.053 26.969 130.689 26.971 131.296 27.154C131.906 27.3371 132.442 27.6861 132.906 28.2009C133.368 28.7137 133.657 29.2821 133.773 29.9059C133.894 30.53 133.83 31.1637 133.583 31.8072C133.337 32.4489 132.897 33.0555 132.262 33.6271ZM131.462 32.7388C131.946 32.3032 132.283 31.858 132.472 31.4033C132.666 30.9487 132.726 30.5093 132.652 30.085C132.582 29.6609 132.394 29.2786 132.087 28.938C131.779 28.5954 131.417 28.3672 131.003 28.2533C130.59 28.1376 130.147 28.1513 129.673 28.2942C129.203 28.4374 128.726 28.7268 128.242 29.1624C127.758 29.598 127.419 30.0431 127.226 30.4977C127.036 30.9524 126.976 31.3918 127.046 31.8159C127.118 32.2382 127.308 32.6207 127.617 32.9632C127.923 33.3038 128.283 33.532 128.696 33.6476C129.112 33.7635 129.555 33.7498 130.025 33.6067C130.499 33.4637 130.978 33.1744 131.462 32.7388Z" fill="#8C6CAA"/>
<path d="M130.723 38.3016L137.355 33.8281L138.95 36.1921C139.297 36.706 139.496 37.1921 139.547 37.6504C139.6 38.1109 139.527 38.531 139.328 38.9105C139.13 39.2886 138.828 39.6153 138.42 39.8905C138.014 40.1643 137.599 40.32 137.175 40.3577C136.755 40.3961 136.345 40.3022 135.944 40.0762C135.545 39.8523 135.172 39.4834 134.825 38.9696L133.617 37.1787L134.479 36.5977L135.626 38.2978C135.844 38.6217 136.068 38.8538 136.298 38.9941C136.529 39.1366 136.765 39.1956 137.006 39.1712C137.247 39.1468 137.492 39.0508 137.74 38.8834C137.991 38.7144 138.175 38.5195 138.293 38.2986C138.412 38.0798 138.451 37.8351 138.41 37.5645C138.373 37.2946 138.243 36.9944 138.02 36.6641L137.172 35.4076L131.398 39.3023L130.723 38.3016ZM135.924 39.5573L134.037 43.2143L133.268 42.0744L135.177 38.4498L135.924 39.5573Z" fill="#8C6CAA"/>
<path d="M135.97 46.7468L143.16 43.2398L145.359 47.7479L144.425 48.2033L142.755 44.7802L140.564 45.8487L142.119 49.0366L141.189 49.4904L139.634 46.3025L137.433 47.3762L139.123 50.8415L138.189 51.297L135.97 46.7468Z" fill="#8C6CAA"/>
<path d="M149.765 61.1184L150.003 62.4686L146.785 65.1582L146.799 65.2429L150.744 66.6694L150.982 68.0197L145.692 66.0053L142.599 66.5506L142.391 65.3658L145.483 64.8204L149.765 61.1184Z" fill="#8C6CAA"/>
<path d="M147.598 79.0742C146.744 79.104 146.005 78.9734 145.38 78.6826C144.757 78.3916 144.271 77.98 143.922 77.4476C143.575 76.9177 143.39 76.3079 143.365 75.6182C143.341 74.9259 143.484 74.3021 143.793 73.7467C144.104 73.1938 144.562 72.7505 145.165 72.4167C145.768 72.083 146.495 71.9012 147.347 71.8715C148.2 71.8417 148.938 71.9723 149.561 72.2632C150.186 72.5541 150.672 72.9645 151.019 73.4944C151.368 74.0268 151.555 74.6391 151.579 75.3314C151.603 76.0211 151.46 76.6423 151.148 77.1952C150.839 77.7506 150.383 78.1952 149.78 78.5289C149.179 78.8626 148.452 79.0444 147.598 79.0742ZM147.556 77.8796C148.207 77.8569 148.751 77.7323 149.189 77.506C149.629 77.2821 149.958 76.984 150.174 76.6117C150.393 76.2418 150.494 75.8279 150.478 75.3698C150.462 74.9092 150.332 74.502 150.088 74.1483C149.846 73.7946 149.498 73.5201 149.043 73.3249C148.591 73.1323 148.039 73.0473 147.388 73.07C146.738 73.0927 146.192 73.216 145.752 73.4398C145.314 73.6662 144.986 73.9643 144.767 74.3341C144.55 74.7039 144.45 75.1191 144.466 75.5798C144.482 76.0378 144.611 76.4437 144.853 76.7975C145.097 77.1538 145.446 77.4282 145.898 77.6209C146.353 77.8161 146.906 77.9023 147.556 77.8796Z" fill="#8C6CAA"/>
<path d="M150.834 87.6084L150.708 88.8127L145.475 88.2627C144.918 88.2041 144.438 88.0215 144.036 87.7147C143.636 87.4082 143.338 87.0051 143.142 86.5053C142.948 86.0057 142.885 85.4374 142.952 84.8003C143.018 84.1658 143.198 83.6243 143.492 83.176C143.787 82.7279 144.163 82.3955 144.618 82.1788C145.075 81.9624 145.582 81.8835 146.139 81.942L151.372 82.492L151.246 83.6924L146.11 83.1526C145.75 83.1148 145.422 83.1602 145.125 83.2888C144.829 83.4199 144.585 83.6234 144.394 83.8992C144.205 84.1753 144.089 84.514 144.047 84.9154C144.005 85.3195 144.047 85.6761 144.174 85.9854C144.304 86.2975 144.5 86.5459 144.764 86.7307C145.027 86.9181 145.338 87.0307 145.698 87.0686L150.834 87.6084Z" fill="#8C6CAA"/>
<path d="M142.182 90.7986L149.944 92.734L149.254 95.5008C149.104 96.1022 148.876 96.5754 148.57 96.9205C148.264 97.268 147.902 97.4947 147.487 97.6004C147.074 97.7068 146.629 97.7005 146.151 97.5814C145.676 97.4629 145.283 97.2589 144.971 96.9692C144.661 96.6826 144.457 96.3148 144.357 95.8658C144.256 95.4193 144.28 94.8954 144.43 94.294L144.953 92.198L145.961 92.4494L145.465 94.4393C145.371 94.8183 145.348 95.1401 145.397 95.4047C145.446 95.6719 145.56 95.8868 145.74 96.0497C145.919 96.2125 146.154 96.3302 146.445 96.4026C146.738 96.4757 147.006 96.4822 147.249 96.422C147.492 96.3644 147.7 96.2297 147.873 96.018C148.049 95.8095 148.185 95.5119 148.281 95.1253L148.648 93.6547L141.89 91.9698L142.182 90.7986ZM144.729 95.5037L140.748 96.5483L141.081 95.2142L145.052 94.2074L144.729 95.5037Z" fill="#8C6CAA"/>
<path d="M135.975 108.133L142.903 112.133L141.477 114.602C141.166 115.141 140.81 115.531 140.409 115.772C140.009 116.013 139.587 116.123 139.145 116.102C138.705 116.083 138.273 115.951 137.849 115.706C137.423 115.46 137.091 115.15 136.854 114.775C136.617 114.404 136.502 113.982 136.509 113.512C136.518 113.044 136.677 112.542 136.987 112.005L137.967 110.307L138.853 110.819L137.928 112.422C137.731 112.763 137.63 113.073 137.625 113.353C137.622 113.634 137.695 113.883 137.843 114.101C137.99 114.319 138.195 114.503 138.457 114.654C138.718 114.805 138.979 114.89 139.24 114.907C139.5 114.925 139.749 114.86 139.988 114.713C140.226 114.567 140.445 114.321 140.645 113.973L141.403 112.661L135.371 109.178L135.975 108.133Z" fill="#8C6CAA"/>
<path d="M131.147 115.951L137.451 120.877L135.696 123.124C135.314 123.612 134.913 123.952 134.493 124.142C134.072 124.335 133.65 124.395 133.227 124.323C132.807 124.252 132.402 124.065 132.015 123.762C131.629 123.461 131.352 123.114 131.186 122.723C131.019 122.335 130.982 121.916 131.073 121.465C131.163 121.016 131.398 120.548 131.78 120.059L133.11 118.357L133.928 118.997L132.666 120.613C132.425 120.92 132.274 121.205 132.211 121.467C132.147 121.731 132.164 121.974 132.262 122.196C132.36 122.417 132.526 122.62 132.762 122.805C133.001 122.991 133.243 123.106 133.489 123.15C133.734 123.196 133.979 123.157 134.224 123.034C134.469 122.915 134.714 122.699 134.959 122.385L135.893 121.19L130.404 116.903L131.147 115.951ZM131.56 121.286L127.499 120.621L128.346 119.537L132.383 120.233L131.56 121.286Z" fill="#8C6CAA"/>
<path d="M123.173 130.621C122.58 130.007 122.182 129.37 121.98 128.711C121.78 128.053 121.761 127.417 121.922 126.801C122.084 126.189 122.413 125.643 122.91 125.163C123.408 124.682 123.967 124.37 124.586 124.228C125.206 124.09 125.841 124.133 126.493 124.358C127.144 124.583 127.766 125.002 128.358 125.615C128.951 126.229 129.348 126.865 129.548 127.522C129.75 128.182 129.771 128.817 129.609 129.43C129.447 130.046 129.117 130.594 128.619 131.075C128.122 131.555 127.564 131.864 126.945 132.002C126.326 132.144 125.69 132.103 125.038 131.878C124.388 131.654 123.767 131.236 123.173 130.621ZM124.033 129.791C124.485 130.259 124.942 130.58 125.403 130.754C125.864 130.932 126.305 130.976 126.727 130.888C127.148 130.803 127.524 130.601 127.854 130.283C128.185 129.963 128.401 129.594 128.5 129.175C128.601 128.759 128.572 128.317 128.413 127.848C128.253 127.383 127.947 126.916 127.495 126.448C127.043 125.979 126.586 125.657 126.125 125.479C125.664 125.305 125.223 125.261 124.801 125.345C124.382 125.432 124.006 125.635 123.675 125.956C123.345 126.274 123.13 126.641 123.028 127.058C122.927 127.478 122.956 127.92 123.116 128.385C123.275 128.854 123.581 129.323 124.033 129.791Z" fill="#8C6CAA"/>
<path d="M116.696 130.519L118.791 128.997L123.494 135.469L121.332 137.04C120.698 137.501 120.059 137.767 119.416 137.838C118.774 137.912 118.157 137.795 117.564 137.489C116.97 137.186 116.43 136.699 115.941 136.027C115.452 135.352 115.154 134.684 115.048 134.02C114.941 133.358 115.024 132.728 115.297 132.13C115.573 131.534 116.039 130.997 116.696 130.519ZM118.435 130.56L117.37 131.334C116.877 131.692 116.534 132.082 116.343 132.505C116.152 132.93 116.105 133.378 116.199 133.85C116.296 134.324 116.53 134.817 116.902 135.329C117.271 135.836 117.665 136.208 118.084 136.444C118.502 136.682 118.936 136.777 119.387 136.729C119.839 136.681 120.3 136.486 120.772 136.143L121.897 135.326L118.435 130.56Z" fill="#8C6CAA"/>
<path d="M110.059 143.915L108.99 144.484L106.52 139.838C106.257 139.344 106.14 138.844 106.169 138.339C106.2 137.836 106.367 137.363 106.672 136.921C106.978 136.481 107.414 136.111 107.979 135.81C108.542 135.511 109.092 135.357 109.628 135.35C110.165 135.344 110.65 135.47 111.084 135.726C111.519 135.984 111.868 136.36 112.131 136.854L114.601 141.5L113.536 142.067L111.111 137.507C110.941 137.188 110.72 136.941 110.448 136.767C110.173 136.595 109.868 136.506 109.533 136.502C109.198 136.5 108.853 136.593 108.496 136.783C108.138 136.974 107.866 137.208 107.68 137.487C107.494 137.769 107.398 138.07 107.392 138.392C107.384 138.715 107.465 139.036 107.635 139.356L110.059 143.915Z" fill="#8C6CAA"/>
<path d="M98.1782 145.872L99.3235 145.455C99.4566 145.684 99.617 145.869 99.8046 146.012C99.9922 146.154 100.196 146.258 100.417 146.325C100.638 146.391 100.869 146.418 101.108 146.406C101.345 146.395 101.583 146.345 101.823 146.258C102.256 146.1 102.604 145.85 102.868 145.508C103.129 145.166 103.282 144.749 103.327 144.256C103.369 143.764 103.28 143.214 103.059 142.607C102.836 141.996 102.551 141.515 102.202 141.165C101.85 140.816 101.464 140.597 101.043 140.506C100.622 140.415 100.197 140.448 99.7693 140.604C99.5319 140.69 99.3183 140.804 99.1286 140.945C98.9373 141.09 98.7779 141.257 98.6505 141.448C98.5231 141.638 98.4328 141.847 98.3797 142.074C98.325 142.305 98.3181 142.548 98.3589 142.805L97.2123 143.218C97.139 142.826 97.1339 142.443 97.1969 142.068C97.2585 141.697 97.3853 141.348 97.5774 141.023C97.768 140.702 98.016 140.416 98.3214 140.166C98.6268 139.917 98.9863 139.717 99.3998 139.566C100.051 139.329 100.687 139.272 101.308 139.395C101.93 139.521 102.493 139.819 102.997 140.29C103.498 140.761 103.895 141.397 104.186 142.197C104.478 143 104.582 143.742 104.498 144.424C104.414 145.108 104.174 145.697 103.777 146.191C103.381 146.687 102.859 147.053 102.211 147.289C101.812 147.434 101.419 147.512 101.032 147.523C100.644 147.537 100.271 147.484 99.9144 147.364C99.5586 147.247 99.2327 147.064 98.9368 146.814C98.6417 146.567 98.3888 146.253 98.1782 145.872Z" fill="#8C6CAA"/>
<path d="M95.6973 148.141L95.9133 149.157L89.8572 150.445L89.6412 149.428L92.0827 148.909L90.6355 142.1L91.8123 141.85L93.2596 148.659L95.6973 148.141Z" fill="#8C6CAA"/>
<path d="M66.6371 146.716L66.7076 145.707L77.6808 146.475L77.6103 147.484L66.6371 146.716Z" fill="#8C6CAA"/>
<path d="M56.7426 140.1L54.0064 147.618L49.2933 145.902L49.6486 144.926L53.2275 146.228L54.0612 143.938L50.7283 142.725L51.0823 141.752L54.4153 142.965L55.2529 140.664L51.63 139.345L51.9854 138.369L56.7426 140.1Z" fill="#8C6CAA"/>
<path d="M44.4733 143.669L44.2522 140.008L44.197 139.979L41.0381 141.843L39.8033 141.186L43.8817 138.825L43.5453 134.116L44.7869 134.776L45.0351 138.403L45.0903 138.432L48.2359 136.61L49.4776 137.27L45.3475 139.604L45.708 144.326L44.4733 143.669Z" fill="#8C6CAA"/>
<path d="M40.8387 132.365L36.1364 138.837L33.8295 137.161C33.3259 136.795 32.9754 136.4 32.7778 135.977C32.5802 135.553 32.5148 135.123 32.5816 134.685C32.6468 134.25 32.8234 133.834 33.1111 133.438C33.4004 133.04 33.7439 132.742 34.1414 132.545C34.5354 132.348 34.9661 132.278 35.4337 132.334C35.8977 132.392 36.3803 132.602 36.8818 132.966L38.4682 134.119L37.8666 134.947L36.3687 133.859C36.0506 133.628 35.7527 133.495 35.475 133.461C35.1959 133.428 34.9403 133.474 34.7083 133.599C34.4763 133.723 34.2715 133.908 34.094 134.152C33.9164 134.396 33.8051 134.647 33.76 134.904C33.715 135.161 33.7535 135.416 33.8756 135.669C33.9955 135.92 34.2178 136.164 34.5422 136.399L35.7684 137.29L39.8622 131.655L40.8387 132.365Z" fill="#8C6CAA"/>
<path d="M32.8913 126.094L27.334 131.848L26.4657 131.01L31.3012 126.003L28.6936 123.485L29.4154 122.737L32.8913 126.094Z" fill="#8C6CAA"/>
<path d="M19.8118 117.283C20.4849 116.757 21.1598 116.428 21.8365 116.296C22.5111 116.166 23.1463 116.213 23.742 116.438C24.334 116.663 24.8425 117.047 25.2674 117.591C25.6939 118.137 25.9454 118.725 26.0219 119.356C26.0947 119.987 25.9852 120.614 25.6933 121.239C25.4014 121.864 24.9199 122.438 24.2489 122.962C23.5758 123.488 22.9019 123.816 22.2273 123.947C21.5506 124.079 20.9162 124.033 20.3242 123.808C19.7285 123.583 19.2174 123.197 18.7909 122.651C18.366 122.107 18.1172 121.52 18.0443 120.89C17.9678 120.259 18.0755 119.631 18.3674 119.007C18.6572 118.383 19.1387 117.809 19.8118 117.283ZM20.5477 118.225C20.0347 118.626 19.6676 119.046 19.4466 119.487C19.2219 119.927 19.1315 120.361 19.1754 120.789C19.2156 121.217 19.3768 121.612 19.659 121.973C19.9427 122.336 20.2874 122.589 20.6929 122.732C21.0963 122.876 21.5395 122.893 22.0223 122.784C22.5015 122.674 22.9976 122.418 23.5106 122.017C24.0236 121.617 24.3925 121.196 24.6172 120.756C24.8382 120.316 24.9286 119.882 24.8884 119.454C24.8461 119.027 24.6831 118.633 24.3993 118.269C24.1172 117.908 23.7743 117.656 23.3709 117.511C22.9638 117.367 22.5207 117.35 22.0415 117.46C21.5587 117.569 21.0607 117.824 20.5477 118.225Z" fill="#8C6CAA"/>
<path d="M21.6729 112.727L14.7447 116.727L13.3189 114.258C13.009 113.721 12.8443 113.222 12.8248 112.761C12.804 112.298 12.9063 111.884 13.1318 111.52C13.355 111.156 13.6797 110.852 14.1059 110.605C14.5299 110.361 14.9546 110.234 15.38 110.226C15.8018 110.217 16.2046 110.339 16.5885 110.593C16.9711 110.844 17.3174 111.238 17.6273 111.775L18.7073 113.646L17.8075 114.165L16.7821 112.389C16.5868 112.051 16.3794 111.804 16.1601 111.648C15.9394 111.489 15.708 111.414 15.4657 111.422C15.2235 111.429 14.9727 111.508 14.7134 111.658C14.4517 111.809 14.2544 111.99 14.1213 112.202C13.9869 112.412 13.9308 112.654 13.953 112.926C13.9716 113.198 14.0806 113.507 14.2798 113.852L15.0376 115.164L21.0693 111.682L21.6729 112.727ZM16.5724 111.112L18.71 107.596L19.3975 108.786L17.2404 112.269L16.5724 111.112Z" fill="#8C6CAA"/>
<path d="M17.0283 103.937L9.6108 106.934L7.73191 102.283L8.69531 101.894L10.122 105.425L12.382 104.512L11.0534 101.223L12.0131 100.836L13.3418 104.124L15.6127 103.207L14.1684 99.6321L15.1318 99.2429L17.0283 103.937Z" fill="#8C6CAA"/>
<path d="M4.26909 88.6379L4.12577 87.2743L7.52412 84.8157L7.51514 84.7303L3.67989 83.032L3.53658 81.6684L8.67271 84.0469L11.7961 83.7187L11.9219 84.9152L8.79847 85.2435L4.26909 88.6379Z" fill="#8C6CAA"/>
<path d="M7.6832 70.877C8.53684 70.9068 9.26532 71.0886 9.86862 71.4223C10.4693 71.756 10.9254 72.2006 11.237 72.7561C11.546 73.3089 11.6885 73.9301 11.6644 74.6198C11.6402 75.3121 11.4547 75.9245 11.1077 76.4569C10.7583 76.9867 10.271 77.3971 9.64592 77.6879C9.0208 77.9788 8.28272 78.1094 7.43168 78.0796C6.57803 78.0498 5.85086 77.8681 5.25016 77.5344C4.64685 77.2007 4.19069 76.7574 3.88167 76.2046C3.57014 75.6491 3.42646 75.0252 3.45063 74.3329C3.47472 73.6433 3.66148 73.0335 4.01091 72.5037C4.35783 71.9712 4.84385 71.5596 5.46896 71.2687C6.09147 70.9778 6.82955 70.8472 7.6832 70.877ZM7.64148 72.0716C6.99084 72.0489 6.43931 72.1351 5.98691 72.3304C5.532 72.523 5.18366 72.7974 4.94191 73.1538C4.69765 73.5075 4.56752 73.9133 4.55153 74.3714C4.53544 74.832 4.63689 75.2473 4.85589 75.6171C5.07229 75.9869 5.40062 76.285 5.84091 76.5114C6.27868 76.7352 6.82288 76.8584 7.47353 76.8811C8.12417 76.9039 8.67695 76.8189 9.13187 76.6264C9.58427 76.4311 9.9326 76.1566 10.1769 75.803C10.4185 75.4492 10.5474 75.042 10.5635 74.5813C10.5795 74.1233 10.4793 73.7094 10.2629 73.3396C10.044 72.9672 9.71564 72.6691 9.27787 72.4453C8.83759 72.2189 8.29213 72.0943 7.64148 72.0716Z" fill="#8C6CAA"/>
<path d="M5.05033 62.1378L5.2606 60.9453L10.4424 61.859C10.9938 61.9562 11.4595 62.1718 11.8395 62.5059C12.217 62.8396 12.4862 63.2625 12.6471 63.7748C12.8054 64.2866 12.829 64.858 12.7177 65.4889C12.6069 66.1172 12.3896 66.6448 12.0658 67.0716C11.7394 67.498 11.3418 67.8034 10.873 67.9878C10.4016 68.1717 9.89016 68.2151 9.33877 68.1179L4.15699 67.2042L4.36659 66.0155L9.4522 66.9122C9.80868 66.9751 10.1392 66.9527 10.4438 66.8451C10.7488 66.7349 11.0063 66.549 11.2164 66.2872C11.424 66.025 11.5628 65.6951 11.6329 65.2976C11.7034 64.8975 11.686 64.5388 11.5807 64.2214C11.4732 63.901 11.2946 63.6395 11.0447 63.4367C10.7954 63.2315 10.4924 63.0974 10.1359 63.0345L5.05033 62.1378Z" fill="#8C6CAA"/>
<path d="M13.9038 59.5589L6.29538 57.0868L7.17656 54.3748C7.36808 53.7853 7.62856 53.3292 7.958 53.0063C8.28823 52.681 8.6643 52.4801 9.08619 52.4036C9.50561 52.3263 9.94936 52.3637 10.4175 52.5158C10.8831 52.6671 11.2612 52.8981 11.5518 53.2088C11.8407 53.5163 12.0194 53.8974 12.0879 54.3523C12.1573 54.8048 12.0962 55.3257 11.9046 55.9151L11.2371 57.9696L10.2489 57.6485L10.8826 55.6981C11.0033 55.3266 11.0483 55.0071 11.0174 54.7397C10.9874 54.4698 10.8885 54.2474 10.7208 54.0724C10.5531 53.8975 10.3269 53.7637 10.0421 53.6712C9.75476 53.5778 9.48774 53.5527 9.24101 53.5957C8.99508 53.6363 8.77816 53.7561 8.59026 53.9552C8.40069 54.151 8.24434 54.4383 8.12122 54.8173L7.65286 56.2587L14.2768 58.411L13.9038 59.5589ZM11.6915 54.6876L15.735 53.9232L15.3101 55.2309L11.2787 55.9582L11.6915 54.6876Z" fill="#8C6CAA"/>
<path d="M21.3052 42.6998L14.6729 38.2263L16.2675 35.8622C16.6155 35.3462 16.9978 34.9821 17.4143 34.7698C17.8307 34.5576 18.2587 34.4772 18.6983 34.5287C19.1358 34.5787 19.5574 34.7406 19.9633 35.0144C20.3713 35.2896 20.6808 35.6225 20.8918 36.0129C21.102 36.3997 21.1871 36.8278 21.147 37.297C21.1062 37.7627 20.9125 38.2524 20.566 38.7663L19.4694 40.392L18.6209 39.8197L19.6563 38.2846C19.8762 37.9586 19.9985 37.6563 20.0231 37.3776C20.0456 37.0975 19.9906 36.8437 19.8582 36.6162C19.7258 36.3887 19.5344 36.1905 19.284 36.0215C19.0335 35.8526 18.7791 35.7501 18.5207 35.7141C18.2623 35.678 18.0089 35.7254 17.7605 35.8562C17.5135 35.9849 17.2779 36.2155 17.0536 36.5479L16.2061 37.8044L21.9802 41.6991L21.3052 42.6998Z" fill="#8C6CAA"/>
<path d="M26.666 35.2372L20.7209 29.8841L22.6289 27.765C23.0436 27.3044 23.4671 26.9936 23.8994 26.8327C24.3334 26.6698 24.7587 26.6392 25.1752 26.7409C25.5898 26.8409 25.98 27.0555 26.3458 27.3849C26.7096 27.7125 26.9611 28.0773 27.1001 28.4794C27.239 28.8778 27.2473 29.2987 27.1248 29.7421C27.0041 30.1836 26.7364 30.6346 26.3217 31.0952L24.8763 32.7006L24.1041 32.0053L25.4764 30.4813C25.7377 30.191 25.9087 29.9174 25.9893 29.6606C26.0716 29.4018 26.0718 29.1584 25.9898 28.9303C25.9077 28.7023 25.7554 28.4881 25.5329 28.2877C25.3084 28.0855 25.0747 27.954 24.8318 27.8929C24.5906 27.83 24.3437 27.8512 24.0911 27.9566C23.8383 28.0584 23.5786 28.2573 23.3119 28.5534L22.2978 29.6798L27.4737 34.3402L26.666 35.2372ZM26.6263 29.8872L30.6311 30.8334L29.7111 31.8553L25.7324 30.88L26.6263 29.8872Z" fill="#8C6CAA"/>
<path d="M35.6439 21.1593C36.193 21.8137 36.5453 22.4767 36.701 23.1483C36.855 23.818 36.8298 24.4544 36.6254 25.0576C36.4214 25.6572 36.0551 26.1787 35.5264 26.6223C34.9958 27.0676 34.4165 27.3395 33.7887 27.438C33.1612 27.5328 32.5302 27.4452 31.8957 27.1753C31.2613 26.9054 30.6704 26.4443 30.123 25.7919C29.574 25.1376 29.2225 24.4756 29.0685 23.8059C28.9128 23.1342 28.937 22.4986 29.141 21.8991C29.3454 21.2959 29.7129 20.7717 30.2435 20.3264C30.7722 19.8828 31.3503 19.6136 31.9778 19.5188C32.6056 19.4203 33.2368 19.506 33.8712 19.7759C34.504 20.0439 35.0949 20.505 35.6439 21.1593ZM34.7283 21.9277C34.3098 21.4289 33.8766 21.0768 33.4288 20.8713C32.9813 20.662 32.5442 20.5868 32.1176 20.6456C31.6914 20.7008 31.3027 20.8756 30.9516 21.1703C30.5985 21.4665 30.3578 21.8198 30.2295 22.23C30.0995 22.6382 30.0977 23.0817 30.224 23.5604C30.3506 24.0355 30.6232 24.5223 31.0417 25.0211C31.4602 25.5198 31.8932 25.8738 32.3407 26.083C32.7885 26.2885 33.2255 26.3637 33.6518 26.3086C34.0764 26.2515 34.4653 26.0748 34.8184 25.7785C35.1695 25.4839 35.41 25.1325 35.54 24.7242C35.6703 24.3123 35.6721 23.8689 35.5455 23.3938C35.4191 22.9151 35.1467 22.4264 34.7283 21.9277Z" fill="#8C6CAA"/>
<path d="M42.0983 21.7126L39.902 23.085L35.6627 16.3006L37.9286 14.8847C38.5933 14.4694 39.2491 14.2485 39.8958 14.222C40.5412 14.1934 41.1489 14.3526 41.7189 14.6996C42.2897 15.0431 42.7952 15.567 43.2355 16.2715C43.6771 16.9782 43.9274 17.6663 43.9864 18.3357C44.0476 19.0037 43.9208 19.6265 43.6061 20.2039C43.29 20.7791 42.7874 21.282 42.0983 21.7126ZM40.3668 21.551L41.4831 20.8534C41.9999 20.5304 42.3687 20.1649 42.5896 19.7566C42.8091 19.3462 42.888 18.9023 42.8262 18.425C42.763 17.9455 42.5637 17.4375 42.2284 16.9008C41.8958 16.3686 41.5286 15.9701 41.1267 15.7053C40.727 15.4392 40.3004 15.3142 39.8469 15.3305C39.3933 15.3467 38.9192 15.5094 38.4245 15.8185L37.2452 16.5554L40.3668 21.551Z" fill="#8C6CAA"/>
<path d="M49.6539 8.8122L50.7601 8.31966L52.9002 13.1265C53.128 13.638 53.2096 14.1447 53.1452 14.6466C53.0796 15.1461 52.8795 15.6058 52.5448 16.0256C52.209 16.4431 51.7485 16.7821 51.1632 17.0427C50.5804 17.3022 50.0215 17.417 49.4865 17.3872C48.9506 17.3551 48.475 17.1962 48.06 16.9106C47.6439 16.6227 47.322 16.223 47.0942 15.7115L44.9541 10.9047L46.0568 10.4137L48.1572 15.1313C48.3044 15.462 48.5078 15.7235 48.7673 15.9158C49.0292 16.1071 49.3274 16.2166 49.6619 16.2444C49.9953 16.2699 50.3464 16.2005 50.7152 16.0363C51.0863 15.8711 51.374 15.6561 51.5782 15.3913C51.7837 15.123 51.9007 14.8286 51.929 14.5081C51.9598 14.1866 51.9015 13.8605 51.7543 13.5298L49.6539 8.8122Z" fill="#8C6CAA"/>
<path d="M61.6422 7.68914L60.4706 8.02507C60.3538 7.78766 60.2068 7.59142 60.0296 7.43634C59.8523 7.28127 59.6559 7.16287 59.4401 7.08116C59.2243 6.99945 58.9966 6.95639 58.7569 6.95197C58.5197 6.94683 58.2785 6.97943 58.0332 7.04977C57.5901 7.17683 57.2253 7.40199 56.9387 7.72528C56.6546 8.04785 56.4729 8.45348 56.3936 8.94219C56.3168 9.43018 56.3674 9.98458 56.5454 10.6054C56.7249 11.2312 56.9765 11.7307 57.3002 12.1038C57.6264 12.4763 57.9964 12.7224 58.41 12.8422C58.8236 12.962 59.2495 12.9591 59.6875 12.8334C59.9304 12.7638 60.1513 12.6652 60.3505 12.5377C60.5514 12.4069 60.722 12.251 60.8624 12.0699C61.0028 11.8887 61.1075 11.6867 61.1763 11.4638C61.2469 11.2376 61.2708 10.9951 61.248 10.7361L62.4206 10.404C62.4664 10.7999 62.4448 11.1827 62.3557 11.5523C62.2684 11.9186 62.1176 12.2572 61.9033 12.5679C61.6908 12.8754 61.4235 13.143 61.1014 13.3708C60.7793 13.5986 60.4067 13.7732 59.9837 13.8945C59.3178 14.0854 58.6793 14.0978 58.0682 13.9317C57.4563 13.7631 56.9155 13.4265 56.4457 12.9218C55.9784 12.4165 55.6274 11.7545 55.3927 10.9359C55.1572 10.1149 55.1054 9.36713 55.2371 8.69272C55.3681 8.01581 55.6487 7.44499 56.0789 6.98027C56.5085 6.51305 57.0549 6.18433 57.7183 5.99411C58.1263 5.87711 58.5237 5.82683 58.9104 5.84328C59.2989 5.8565 59.6668 5.9352 60.0143 6.07939C60.3611 6.22107 60.6734 6.42681 60.9512 6.69662C61.2283 6.96392 61.4587 7.29476 61.6422 7.68914Z" fill="#8C6CAA"/>
<path d="M64.2753 5.59876L64.1307 4.56981L70.2618 3.70813L70.4065 4.73708L67.9347 5.08447L68.9034 11.9777L67.712 12.1451L66.7432 5.25191L64.2753 5.59876Z" fill="#8C6CAA"/>
</svg>
