<svg width="113" height="214" viewBox="0 0 113 214" fill="none" xmlns="http://www.w3.org/2000/svg">
<path fill-rule="evenodd" clip-rule="evenodd" d="M77.5663 85.9605C78.4553 85.7525 79.0233 85.2245 79.3103 84.5755C80.4233 82.0325 82.5583 80.2615 84.1003 78.0505C84.9723 76.8005 85.9133 75.5755 86.6053 74.2265C88.2123 71.0835 89.6803 67.8685 91.2193 64.6895C92.5423 61.9535 93.1973 59.0095 93.9233 56.0875C94.2303 54.8565 93.8643 53.9285 92.8553 53.0995C91.7123 52.1635 90.6773 51.0855 89.6563 50.0115C88.3083 48.5975 87.6853 46.8435 87.5043 44.9215C87.4323 44.1835 87.3483 43.4415 87.3543 42.7005C87.3583 42.0075 87.3773 41.2875 87.5613 40.6265C88.1903 38.3485 89.9983 37.5635 92.1293 38.5635C93.0243 38.9835 93.7423 39.6005 94.2913 40.4155C94.8013 41.1655 95.3003 41.9195 95.9003 42.8175C96.0873 42.2705 96.2263 41.8295 96.3853 41.3975C97.1403 39.2935 98.0073 37.2625 99.6563 35.6575C101.218 34.1395 102.511 33.9995 104.129 35.4045C105.806 36.8565 106.662 38.7025 106.426 40.9715C106.334 41.8765 106.254 42.7825 106.154 43.8275C106.71 43.9065 107.215 43.9535 107.71 44.0525C108.689 44.2465 109.724 44.3175 110.62 44.7055C112.509 45.5215 113.149 47.5865 112.255 49.4405C110.683 52.6905 107.931 54.4985 104.649 55.6355C103.277 56.1135 101.88 55.7635 100.496 55.6015C100.236 55.5725 99.9823 55.4915 99.7233 55.4705C98.7763 55.3965 97.9653 55.6325 97.5793 56.5945C97.1723 57.6035 96.7233 58.6065 96.4553 59.6545C95.9493 61.6585 95.2013 63.5255 94.1743 65.3335C92.3603 68.5165 90.6923 71.7825 89.0183 75.0455C88.0743 76.8815 86.9243 78.5665 85.6613 80.1915C84.5093 81.6685 83.3503 83.1245 82.5093 84.8355C82.0073 85.8615 81.0813 86.6885 80.3233 87.5855C79.9973 87.9715 79.6153 88.3055 79.3893 88.8675C80.2293 88.6765 81.0883 88.5485 81.9023 88.2805C86.2663 86.8365 90.7643 86.9315 95.2663 87.0565C98.1883 87.1405 101.11 87.2695 104.031 87.3615C105.745 87.4125 106.669 88.2875 106.514 90.0005C106.425 90.9275 106.098 91.8785 105.684 92.7215C104.332 95.4735 102.108 97.4335 99.5803 99.0615C97.5613 100.359 95.5273 101.646 93.2453 102.455C92.0133 102.891 90.7633 103.283 89.5093 103.658C87.7163 104.197 85.9103 104.695 84.1123 105.222C80.1383 106.383 76.0873 106.273 72.0233 105.988C68.9473 105.775 66.0093 104.967 63.1493 103.877C61.8413 103.381 60.8613 103.609 59.8693 104.643C56.7713 107.877 54.0923 111.411 51.8513 115.289C51.1543 116.495 50.3373 117.634 49.5923 118.813C49.3613 119.18 49.0793 119.557 48.9913 119.967C48.6803 121.397 48.0383 122.662 47.3343 123.925C46.8493 124.793 46.4373 125.705 46.3883 126.756C46.3653 127.303 46.1173 127.865 45.8633 128.365C44.8003 130.447 44.2573 132.692 43.7343 134.943C43.3903 136.422 43.0603 137.908 42.7683 139.4C42.6623 139.951 42.6603 140.527 42.6443 141.092C42.5703 144.013 42.5333 146.937 42.4313 149.858C42.3963 150.855 42.2263 151.85 42.1013 152.841C41.9333 154.204 41.3763 155.437 40.8123 156.667C40.3023 157.774 39.6233 158.837 39.3263 160.001C38.9143 161.593 37.8323 162.54 36.6073 163.366C35.9423 163.815 35.5893 164.345 35.2943 165.054C34.7363 166.395 34.3603 167.764 34.1403 169.198C34.0213 169.966 33.7243 170.712 33.4603 171.45C32.4293 174.331 31.7463 177.296 31.1833 180.302C30.8373 182.14 30.1613 183.91 29.6923 185.726C29.2443 187.443 28.8713 189.179 28.6313 190.997C28.7943 190.838 28.9663 190.686 29.1203 190.516C30.4363 189.064 31.6833 187.54 33.0803 186.167C34.6923 184.578 36.3953 183.071 38.1283 181.614C41.2663 178.97 45.0073 177.684 49.0073 177.141C53.5193 176.525 57.9033 175.362 62.3203 174.327C62.5743 174.265 62.8223 174.165 63.0753 174.108C64.8083 173.717 65.8623 174.85 65.3703 176.575C65.3483 176.657 65.3113 176.739 65.2683 176.817C63.9403 179.163 62.8283 181.645 60.6913 183.454C57.7553 185.936 54.7243 188.269 51.4813 190.352C48.8023 192.074 46.2803 194.04 43.6963 195.906C42.9183 196.469 42.1803 197.089 41.3843 197.624C40.4793 198.229 39.5793 198.875 38.5933 199.325C35.2513 200.847 31.7753 201.992 28.1743 202.744C27.0523 202.977 26.7513 203.27 26.7203 204.403C26.7023 205.065 26.5293 205.618 26.2543 206.231C25.6713 207.545 25.9313 208.975 26.0733 210.365C26.1063 210.71 26.2333 211.046 26.2633 211.393C26.3513 212.36 25.8683 213 24.9223 213.151C24.5823 213.208 24.2233 213.188 23.8783 213.146C22.8363 213.026 22.4773 212.624 22.5703 211.594C22.6663 210.554 22.7793 209.508 22.9883 208.487C23.1993 207.45 23.2173 206.428 23.2223 205.375C23.2343 203.157 23.3723 200.939 23.9563 198.759C24.3963 197.124 24.6173 195.431 24.9563 193.765C25.1463 192.826 25.3073 191.869 25.6143 190.965C27.7103 184.798 29.1803 178.47 30.6233 172.128C31.1943 169.62 31.7573 167.108 32.4583 164.634C32.9853 162.768 32.5133 161.093 31.8203 159.429C30.8683 157.134 29.8643 154.86 28.8773 152.578C28.5483 151.817 28.2053 151.063 27.8843 150.298C26.7203 147.53 25.4453 144.798 24.4293 141.973C23.2623 138.724 22.6583 135.317 22.2553 131.886C21.9033 128.896 21.4753 125.913 21.5893 122.882C21.7223 119.463 22.1203 116.11 23.0503 112.8C23.6383 110.709 23.8943 108.527 24.3123 106.384C24.4143 105.875 24.5103 105.349 24.7163 104.874C25.0873 104.017 25.7553 103.78 26.6533 104.072C27.4593 104.335 27.9593 104.9 28.3453 105.622C29.2063 107.237 30.0973 108.843 30.9653 110.456C31.7783 111.967 32.7763 113.337 34.0053 114.54C36.3473 116.839 38.1123 119.505 39.1933 122.622C39.5193 123.567 40.0263 124.451 40.3623 125.395C40.8413 126.745 41.2403 128.123 41.6723 129.492C41.7463 129.725 41.7953 129.963 42.0943 130.252C42.3463 129.585 42.6623 128.934 42.8403 128.247C43.9993 123.812 45.9353 119.739 48.3113 115.835C50.6293 112.017 53.2353 108.415 56.0513 104.96C56.6823 104.186 57.4713 103.542 58.1793 102.831C60.5123 100.47 62.7683 98.0315 65.3853 95.9695C66.4813 95.1065 67.5613 94.2195 68.6063 93.2935C72.4733 89.8655 75.0423 85.6455 76.2923 80.6235C76.4293 80.0705 76.5523 79.5145 76.7553 78.9865C77.7943 76.2595 77.7823 73.4415 77.6213 70.5885C77.4383 67.4495 77.3453 64.3065 77.2103 61.1685C77.1833 60.6015 77.1633 60.0315 77.0923 59.4715C76.6603 56.0945 76.2303 52.7175 75.7633 49.3465C75.6063 48.2255 75.4603 47.0785 75.1163 46.0065C74.1523 42.9995 74.1213 39.9035 74.0803 36.8035C74.0453 33.7895 73.9873 30.7795 73.9593 27.7665C73.9553 27.2015 74.0183 26.6315 74.1033 26.0715C74.6153 22.7045 74.3183 19.3735 73.7493 16.0435C73.5743 15.0015 72.9933 14.3255 72.1203 13.8035C70.9243 13.0835 69.7113 12.3795 68.5783 11.5655C67.5193 10.8025 66.4983 9.96252 65.5693 9.04652C64.3473 7.83752 63.8093 6.35852 64.2973 4.62052C64.3553 4.41152 64.4243 4.20252 64.5243 4.01052C65.5193 2.08252 68.9993 1.45252 70.5713 2.93652C71.2073 3.53752 71.7703 4.20752 72.3743 4.83952C72.6653 5.14352 72.9743 5.43351 73.4013 5.85951C73.6713 5.26551 73.8973 4.85052 74.0463 4.41252C74.7433 2.34952 76.2153 1.08952 78.1923 0.330516C79.6433 -0.228484 80.8033 0.275513 81.2843 1.76651C81.5293 2.54351 81.6173 3.37351 81.8023 4.29151C82.1693 4.22851 82.5353 4.16852 82.9063 4.10352C84.0643 3.90452 85.2143 3.61152 86.3793 3.52052C89.3423 3.28952 91.3003 6.32052 89.9543 8.99452C89.5423 9.81252 89.0863 10.6095 88.6583 11.4205C88.1083 12.4675 87.2043 13.1435 86.2263 13.7415C85.1113 14.4245 84.0343 15.1915 82.8613 15.7625C81.7743 16.2895 80.5933 16.6335 79.4373 17.0085C77.9213 17.5025 77.7493 17.6165 77.6773 19.1765C77.4893 23.2745 77.3413 27.3755 77.2063 31.4755C77.1303 33.7465 77.1083 36.0165 77.0633 38.2865C77.0123 40.7485 77.4633 43.1475 77.8723 45.5595C78.4993 49.2585 79.1013 52.9645 79.5443 56.6905C79.9803 60.3675 80.2043 64.0755 80.5053 67.7685C80.6263 69.2485 80.7453 70.7315 80.7763 72.2135C80.8173 74.0925 80.7083 75.9585 80.0933 77.7745C79.2423 80.2925 78.4653 82.8355 77.6603 85.3685C77.6073 85.5185 77.6063 85.6885 77.5663 85.9605ZM27.0023 110.737C26.3843 112.17 25.8693 113.397 25.5893 114.706C25.0303 117.319 24.6433 119.97 24.7633 122.636C24.9003 125.686 25.2333 128.724 25.5033 131.766C25.9563 136.868 27.4783 141.677 29.5443 146.332C29.7383 146.775 30.0173 147.178 30.2553 147.599C30.4993 147.299 30.5583 147.09 30.5433 146.887C30.3023 143.886 30.1653 140.87 29.7693 137.887C29.3743 134.908 28.7263 131.959 28.1693 129.001C27.7103 126.549 27.3883 124.092 27.6033 121.586C27.7183 120.24 27.7533 118.887 27.8323 117.539C27.8553 117.153 27.8633 116.752 28.4943 116.548C28.6733 116.918 28.9123 117.274 29.0193 117.663C29.4833 119.345 29.9583 121.025 30.3323 122.729C30.7923 124.815 31.1403 126.925 31.5523 129.022C32.0413 131.503 32.7183 133.962 33.0133 136.467C33.5683 141.15 33.8733 145.86 34.3493 150.552C34.5603 152.632 34.9113 154.7 35.2323 156.769C35.3533 157.559 35.6563 158.269 36.6293 158.687C37.1873 157.563 37.7823 156.501 38.2553 155.386C39.1673 153.222 39.2653 150.881 39.5813 148.595C39.8993 146.295 40.0953 143.97 39.7633 141.673C39.3293 138.689 38.8763 135.718 38.8123 132.694C38.7763 130.94 38.4593 129.219 37.7833 127.585C36.9963 125.692 36.1783 123.81 35.4293 121.903C34.6123 119.819 33.1883 118.165 31.6883 116.585C30.2743 115.095 28.7663 113.7 27.8383 111.817C27.6723 111.49 27.3843 111.225 27.0023 110.737ZM31.2673 198.734C31.3163 198.825 31.3693 198.913 31.4213 199.002C31.8233 198.932 32.2353 198.891 32.6323 198.79C36.0323 197.916 39.0283 196.271 41.7343 194.06C42.4103 193.506 43.0933 192.961 43.8023 192.455C47.2763 189.964 50.7593 187.488 54.2403 185.007C56.4603 183.426 58.4463 181.61 60.0093 179.359C60.4483 178.728 60.8863 178.11 61.1613 177.14C60.0013 177.373 59.0713 177.561 58.1393 177.744C55.2323 178.319 52.3203 178.895 49.4113 179.462C46.9173 179.944 44.4253 180.511 42.2453 181.843C40.7343 182.769 39.4153 184.013 38.0093 185.114C34.4703 187.888 31.9093 191.452 29.8203 195.381C29.7543 195.507 29.7783 195.682 29.7443 195.978C30.0893 195.748 30.3113 195.617 30.5153 195.459C32.4533 193.972 34.3183 192.376 36.3383 191.011C39.6223 188.786 42.9833 186.665 46.3733 184.607C47.6113 183.856 48.9273 183.125 50.5063 183.005C50.4753 183.193 50.4943 183.369 50.4263 183.421C49.1333 184.38 48.2113 185.762 46.9853 186.726C44.4833 188.691 41.7513 190.357 39.1333 192.177C37.7763 193.124 36.4353 194.101 35.1393 195.132C34.1183 195.946 33.1723 196.861 32.2083 197.747C31.8723 198.053 31.5763 198.404 31.2673 198.734ZM65.8003 99.0405C66.2933 98.9635 66.4993 98.9455 66.6973 98.8945C69.2353 98.2585 71.7453 97.4915 74.3073 97.0085C78.5463 96.2115 82.8053 95.4945 87.0783 94.9385C91.4383 94.3715 95.8303 94.0365 100.211 93.6015C102.002 93.4225 103.241 91.7895 102.962 89.8775C102.729 89.8565 102.476 89.8255 102.226 89.8165C101.054 89.7795 99.8823 89.7615 98.7103 89.7165C96.9703 89.6505 95.2313 89.5455 93.4933 89.4895C92.7083 89.4635 91.9133 89.5935 91.1383 89.5075C89.5483 89.3305 87.9903 89.4935 86.4643 89.8595C83.2023 90.6415 79.9393 91.4205 76.7303 92.3815C74.0443 93.1855 71.5053 94.3685 69.4683 96.3905C68.6573 97.1955 67.8393 97.9585 66.7183 98.3245C66.4583 98.4095 66.2573 98.6755 65.8003 99.0405ZM67.4473 101.818C67.4533 101.933 67.4573 102.05 67.4643 102.168C67.9863 102.357 68.5013 102.604 69.0393 102.729C73.3633 103.719 77.7213 104.254 82.1193 103.315C86.8203 102.311 91.4633 101.085 95.6333 98.5995C97.0803 97.7395 98.3603 96.5955 99.6983 95.5565C99.8863 95.4085 99.9673 95.1135 100.117 94.8545C99.0293 95.2355 98.0733 95.7015 97.0663 95.8905C95.1003 96.2645 93.1093 96.4895 91.1253 96.7675C85.1313 97.6055 79.1333 98.4285 73.3243 100.227C72.7423 100.407 72.1363 100.502 71.5493 100.663C70.1803 101.037 68.8153 101.432 67.4473 101.818ZM97.4213 52.0005C97.4983 52.0095 97.5803 52.0205 97.6593 52.0295C98.8173 50.3545 100.1 48.7535 101.099 46.9895C102.124 45.1785 103 43.2545 103.349 41.1615C103.526 40.0955 103.612 39.0145 103.037 37.9895C102.331 37.9775 101.961 38.4315 101.603 38.8505C100.23 40.4625 99.1173 42.2225 98.6653 44.3265C98.3373 45.8605 98.0103 47.3935 97.7473 48.9405C97.5783 49.9485 97.5263 50.9785 97.4213 52.0005ZM78.8653 13.8645C79.4433 13.8665 79.7713 13.9515 80.0313 13.8575C82.3463 13.0135 84.4603 11.8225 86.1143 9.96151C86.6683 9.33851 86.9763 8.55552 86.8943 7.67452C86.8463 7.18752 86.6403 6.78551 86.1323 6.76251C84.9163 6.71151 83.6923 6.67151 82.7133 7.63751C81.3083 9.02851 80.1673 10.6085 79.3003 12.3805C79.1003 12.7885 79.0373 13.2635 78.8653 13.8645ZM109.779 47.3155C109.213 47.2185 108.739 47.0245 108.303 47.0885C107.449 47.2115 106.562 47.3595 105.786 47.7115C104.016 48.5115 102.476 49.6545 101.266 51.2025C100.638 52.0045 99.9323 52.6915 98.9633 53.0905C98.7053 53.1975 98.5253 53.4965 98.3113 53.7075C98.3703 53.8025 98.4263 53.8955 98.4843 53.9895C98.8803 53.8675 99.2723 53.7425 99.6693 53.6255C100.251 53.4475 100.831 53.1375 101.419 53.1275C103.648 53.0845 105.444 51.9975 107.151 50.7845C108.312 49.9655 109.329 48.9275 109.779 47.3155ZM94.6593 50.7375C94.6603 50.5345 94.6923 50.3545 94.6583 50.1935C94.2403 48.3265 93.8183 46.4605 93.3833 44.5955C93.2343 43.9575 93.0713 43.3235 92.8713 42.7025C92.7173 42.2305 92.4253 41.7115 91.8913 41.8125C91.4893 41.8905 91.1173 42.2895 90.7993 42.6115C90.6343 42.7795 90.6003 43.0905 90.5433 43.3435C89.7853 46.6565 91.3273 49.1165 94.4103 50.8225C94.4373 50.8385 94.4903 50.7985 94.6593 50.7375ZM71.7463 10.1125C71.3923 8.78351 68.9713 5.96952 67.6283 5.25352C66.9443 6.07052 66.8823 6.51751 67.6483 7.20651C68.6713 8.13051 69.7983 8.94651 70.8983 9.78051C71.1173 9.94451 71.4213 9.98951 71.7463 10.1125ZM76.7323 9.61552C78.1023 7.33752 78.5663 5.23552 78.0133 4.06552C76.6443 5.34152 76.0833 7.65652 76.7323 9.61552Z" fill="#F1E3EF"/>
<path fill-rule="evenodd" clip-rule="evenodd" d="M40.4431 75.4876C40.2848 74.155 40.1643 72.8131 39.9556 71.4847C39.6988 69.8497 39.3133 68.2322 39.083 66.5922C38.8052 64.6498 38.5843 62.6977 38.4198 60.7428C37.9511 55.2019 36.6026 49.8233 35.3266 44.4411C34.11 39.2961 33.5872 34.1121 34.1752 28.8805C34.5418 25.6409 35.1696 22.421 36.2375 19.2975C36.8812 17.4105 37.2734 15.4264 37.6622 13.4621C37.9443 12.0483 39.0235 11.5139 40.2031 12.375C40.4749 12.575 40.7062 12.8592 40.8983 13.1444C42.9147 16.1676 44.7114 19.3116 45.7855 22.8092C46.8369 26.2349 47.7091 29.6973 47.8977 33.3007C47.9619 34.4708 48.231 35.6374 48.2173 36.8036C48.1986 38.4609 48.0127 40.1156 47.8872 41.7679C47.8665 42.029 47.8556 42.319 47.7368 42.5377C46.7498 44.3637 47.0578 46.4628 46.4862 48.3782C45.9722 50.0884 45.6191 51.8459 45.1658 53.5747C44.7248 55.2613 44.2268 56.9316 43.7965 58.622C43.5011 59.7731 43.211 60.8814 42.226 61.7087C41.924 61.9637 41.7677 62.5606 41.7782 62.9927C41.8083 64.2565 41.8747 65.5301 42.0789 66.772C42.6336 70.1362 43.1313 73.4971 43.1374 76.9142C43.1424 80.227 43.1373 83.54 43.1362 86.8533C43.1379 87.071 43.0922 87.2902 43.108 87.507C43.4779 92.5762 42.7519 97.6038 42.505 102.649C42.4619 103.606 42.5123 104.574 42.4175 105.525C42.2317 107.39 41.9642 109.249 41.7437 111.109C41.4836 113.363 41.0421 115.613 41.0246 117.868C41.0073 120.478 40.5691 123.072 40.9248 125.71C41.1368 127.313 40.8024 128.996 40.6534 130.64C40.4736 132.639 40.1882 134.629 40.0252 136.63C39.8916 138.283 39.9102 139.951 39.7837 141.603C39.6856 142.904 39.5064 144.204 39.2909 145.492C38.7656 148.723 38.2025 151.948 37.6406 155.171C37.0973 158.267 36.5412 161.36 35.993 164.455C35.4676 167.42 34.9352 170.384 34.4237 173.351C33.9573 176.067 33.3643 178.745 32.4047 181.336C32.148 182.028 32.0089 182.769 31.723 183.449C31.3533 184.321 30.921 185.173 30.4458 185.997C30.2876 186.273 29.9484 186.502 29.6424 186.623C29.1341 186.821 28.6804 186.428 28.7175 185.883C28.7313 185.713 28.7952 185.543 28.8469 185.377C30.2811 180.919 31.25 176.354 31.9425 171.731C32.6588 166.939 33.266 162.131 33.9536 157.333C34.175 155.78 34.5205 154.244 34.7628 152.692C35.2977 149.282 35.8811 145.88 36.2887 142.456C36.5168 140.521 36.8477 138.579 36.6679 136.589C36.5645 135.432 36.7719 134.237 36.9152 133.068C37.4663 128.565 38.0702 124.067 38.6144 119.562C39.0898 115.664 39.5994 111.765 39.9364 107.853C40.2043 104.725 40.2352 101.576 40.384 98.4321C40.5008 95.991 40.6529 93.5475 40.76 91.1037C40.8046 90.0189 40.7674 90.0201 39.7219 89.6024C38.0007 88.915 36.4982 87.8811 35.091 86.686C33.9949 85.7549 32.8571 84.8719 31.7557 83.9445C30.1206 82.5676 28.4617 81.2131 26.8943 79.7631C26.1659 79.0885 25.5587 78.2575 25.0143 77.4182C23.8731 75.6614 22.8499 73.8303 21.7066 72.0744C20.995 70.9788 20.1556 69.9678 19.3765 68.9163C19.168 68.6348 18.938 68.3607 18.7877 68.0526C17.6012 65.5804 16.0855 63.2589 15.3642 60.575C15.2613 60.1972 15.0851 59.835 14.9099 59.4848C14.3395 58.3647 13.7274 57.2646 13.18 56.1323C12.3279 54.3722 11.5053 52.5933 10.6806 50.8163C10.4875 50.3976 10.3401 49.9583 10.1728 49.5305C10.2443 49.4607 10.3166 49.3929 10.3899 49.3252C10.8573 49.5901 11.3945 49.7801 11.7821 50.1332C13.4303 51.6283 15.0585 53.15 16.6481 54.7049C17.1955 55.2396 17.768 55.6398 18.499 55.8804C22.5755 57.2107 26.5246 58.8482 30.0847 61.2687C32.3741 62.8262 34.4058 64.6892 35.7383 67.1804C37.1164 69.7583 38.4674 72.3492 39.8298 74.936C39.9279 75.1249 40.0198 75.3153 40.1108 75.5057C40.2226 75.4991 40.3333 75.4934 40.4431 75.4876ZM38.3451 82.6171C38.3994 82.4557 38.4623 82.3662 38.4474 82.2979C37.476 78.3166 36.5633 74.3146 34.4634 70.7226C33.9126 69.7805 33.3211 68.8615 32.8296 67.8908C32.1646 66.5891 31.3488 65.4124 30.2362 64.4731C29.1407 63.5481 28.0552 62.5828 26.8362 61.8451C25.1658 60.8296 23.3953 59.9721 21.6254 59.1317C20.911 58.792 20.094 58.4817 19.1287 59.141C19.492 59.8423 19.7622 60.5817 20.2107 61.1901C21.9926 63.613 23.8234 65.9993 25.6495 68.3934C26.5984 69.6413 27.6329 70.8304 28.5212 72.1239C29.394 73.3961 30.4352 74.4834 31.5469 75.541C32.9336 76.861 34.2362 78.2709 35.5631 79.6535C36.4929 80.6212 37.4023 81.6084 38.3451 82.6171ZM41.7838 53.1552C41.9008 53.1731 42.0178 53.1909 42.135 53.2058C42.4388 51.9832 42.7003 50.7493 43.0522 49.5394C44.3355 45.1414 45.7178 40.7599 45.1356 36.0719C45.1298 36.0283 45.1351 35.9856 45.1365 35.9406C45.2084 32.9114 44.8569 29.9386 43.9689 27.0316C43.5146 25.5292 43.1713 23.991 42.6562 22.5091C42.1747 21.114 41.5481 19.768 40.9553 18.4136C40.8518 18.1772 40.5854 18.0127 40.3565 17.7758C39.7118 18.7331 39.6849 19.6607 39.8096 20.6408C40.1316 23.1802 40.8353 25.6451 40.7252 28.2762C40.621 30.6953 41.0033 33.1399 41.2195 35.567C41.3755 37.3017 41.746 39.0244 41.7856 40.7603C41.8547 43.768 41.733 46.7794 41.7136 49.7894C41.7042 50.9119 41.759 52.0342 41.7838 53.1552ZM38.6995 42.9605C38.6359 36.0752 38.2564 29.2043 38.9477 22.3228C38.7443 22.4268 38.599 22.5452 38.5733 22.6866C38.1154 25.1682 37.3987 27.5852 37.0641 30.1082C36.7584 32.4198 36.8444 34.6846 36.7947 36.9804C36.7461 39.2612 37.9722 40.9822 38.6995 42.9605ZM26.6991 74.1185C28.7932 78.4522 31.9109 81.3939 35.7675 83.6322C33.0188 80.3332 30.2999 77.0104 26.6991 74.1185Z" fill="#F1E3EF"/>
</svg>
